<?xml version="1.0" standalone="no"?>
<!DOCTYPE svg PUBLIC "-//W3C//DTD SVG 1.1//EN" "http://www.w3.org/Graphics/SVG/1.1/DTD/svg11.dtd">
<svg width="192mm" height="124mm" viewBox="0 -112 192 124" xmlns="http://www.w3.org/2000/svg" version="1.1">
<title>OpenSCAD Model</title>
<path d="
M 159.815,11.829 L 159.904,11.817 L 159.991,11.798 L 160.077,11.773 L 160.161,11.742 L 160.242,11.703
 L 160.321,11.659 L 160.396,11.608 L 160.468,11.551 L 160.535,11.487 L 160.598,11.418 L 160.657,11.342
 L 160.671,11.321 L 160.676,11.314 L 178.326,-19.4059 L 178.409,-19.5458 L 178.489,-19.6875 L 178.565,-19.8309
 L 178.637,-19.976 L 178.706,-20.1228 L 178.771,-20.2711 L 178.832,-20.4208 L 178.89,-20.572 L 178.943,-20.7245
 L 178.993,-20.8782 L 179.039,-21.0332 L 179.082,-21.1892 L 179.12,-21.3463 L 179.154,-21.5044 L 179.185,-21.6634
 L 179.212,-21.8232 L 179.234,-21.9838 L 179.253,-22.1451 L 179.268,-22.307 L 179.279,-22.4694 L 179.279,-38
 L 191.139,-38 L 191.139,-108.199 L 162,-108.199 L 162,-101.75 L 152.276,-101.75 L 152.224,-101.76
 L 152.173,-101.773 L 152.123,-101.79 L 152.074,-101.809 L 152.028,-101.832 L 151.983,-101.857 L 151.94,-101.885
 L 151.899,-101.916 L 151.86,-101.95 L 151.824,-101.985 L 151.789,-102.023 L 151.758,-102.064 L 151.729,-102.106
 L 151.702,-102.15 L 151.679,-102.196 L 151.659,-102.244 L 151.641,-102.293 L 151.627,-102.343 L 151.616,-102.395
 L 151.609,-102.448 L 151.609,-104.094 L 151.606,-104.149 L 151.6,-104.202 L 151.589,-104.254 L 151.575,-104.305
 L 151.556,-104.354 L 151.534,-104.401 L 151.509,-104.445 L 151.48,-104.488 L 151.448,-104.528 L 151.413,-104.566
 L 151.376,-104.601 L 151.336,-104.632 L 151.293,-104.661 L 151.248,-104.687 L 151.202,-104.709 L 151.153,-104.727
 L 151.102,-104.742 L 151.05,-104.752 L 150.997,-104.759 L 150.942,-104.761 L 126.94,-104.761 L 126.886,-104.763
 L 126.832,-104.77 L 126.78,-104.781 L 126.73,-104.795 L 126.681,-104.814 L 126.634,-104.836 L 126.589,-104.861
 L 126.547,-104.89 L 126.506,-104.922 L 126.469,-104.956 L 126.434,-104.994 L 126.402,-105.034 L 126.373,-105.077
 L 126.348,-105.121 L 126.326,-105.168 L 126.307,-105.217 L 126.293,-105.268 L 126.282,-105.32 L 126.276,-105.373
 L 126.273,-105.428 L 126.273,-107.428 L 126.271,-107.483 L 126.265,-107.536 L 126.254,-107.588 L 126.239,-107.639
 L 126.221,-107.688 L 126.199,-107.734 L 126.174,-107.779 L 126.145,-107.822 L 126.113,-107.862 L 126.078,-107.899
 L 126.041,-107.934 L 126.001,-107.966 L 125.958,-107.995 L 125.913,-108.02 L 125.866,-108.042 L 125.818,-108.061
 L 125.767,-108.075 L 125.715,-108.086 L 125.662,-108.092 L 125.607,-108.095 L 101.605,-108.095 L 101.551,-108.097
 L 101.497,-108.103 L 101.445,-108.114 L 101.395,-108.129 L 101.346,-108.147 L 101.299,-108.169 L 101.254,-108.195
 L 101.211,-108.223 L 101.171,-108.255 L 101.134,-108.29 L 101.099,-108.328 L 101.067,-108.368 L 101.038,-108.41
 L 101.013,-108.455 L 100.991,-108.502 L 100.972,-108.551 L 100.958,-108.601 L 100.947,-108.654 L 100.941,-108.707
 L 100.938,-108.762 L 100.938,-110.428 L 100.936,-110.483 L 100.93,-110.536 L 100.919,-110.588 L 100.904,-110.639
 L 100.886,-110.688 L 100.864,-110.735 L 100.839,-110.779 L 100.81,-110.822 L 100.778,-110.862 L 100.743,-110.9
 L 100.706,-110.934 L 100.666,-110.966 L 100.623,-110.995 L 100.578,-111.02 L 100.531,-111.042 L 100.483,-111.061
 L 100.432,-111.075 L 100.38,-111.086 L 100.327,-111.092 L 100.272,-111.095 L 77.6033,-111.095 L 77.5487,-111.092
 L 77.4952,-111.086 L 77.4432,-111.075 L 77.3927,-111.061 L 77.344,-111.042 L 77.2971,-111.02 L 77.2523,-110.995
 L 77.2098,-110.966 L 77.1696,-110.934 L 77.1321,-110.9 L 77.0973,-110.862 L 77.0655,-110.822 L 77.0367,-110.779
 L 77.0112,-110.735 L 76.9892,-110.688 L 76.9708,-110.639 L 76.9562,-110.588 L 76.9455,-110.536 L 76.939,-110.483
 L 76.9368,-110.428 L 76.9368,-108.762 L 76.9346,-108.707 L 76.928,-108.654 L 76.9174,-108.601 L 76.9028,-108.551
 L 76.8844,-108.502 L 76.8623,-108.455 L 76.8369,-108.41 L 76.8081,-108.368 L 76.7762,-108.328 L 76.7415,-108.29
 L 76.7039,-108.255 L 76.6638,-108.223 L 76.6212,-108.195 L 76.5764,-108.169 L 76.5296,-108.147 L 76.4808,-108.129
 L 76.4303,-108.114 L 76.3783,-108.103 L 76.3249,-108.097 L 76.2703,-108.095 L 52.2682,-108.095 L 52.2135,-108.092
 L 52.16,-108.086 L 52.108,-108.075 L 52.0575,-108.061 L 52.0087,-108.042 L 51.9618,-108.02 L 51.917,-107.995
 L 51.8745,-107.966 L 51.8344,-107.934 L 51.7968,-107.899 L 51.7621,-107.862 L 51.7302,-107.822 L 51.7015,-107.779
 L 51.676,-107.734 L 51.654,-107.688 L 51.6357,-107.639 L 51.621,-107.588 L 51.6104,-107.536 L 51.6039,-107.483
 L 51.6017,-107.428 L 51.6017,-102.428 L 51.5995,-102.373 L 51.593,-102.319 L 51.5823,-102.267 L 51.5677,-102.217
 L 51.5493,-102.168 L 51.5272,-102.121 L 51.5018,-102.076 L 51.473,-102.034 L 51.4411,-101.994 L 51.4064,-101.956
 L 51.3688,-101.921 L 51.3287,-101.889 L 51.2861,-101.861 L 51.2413,-101.835 L 51.1945,-101.813 L 51.1457,-101.795
 L 51.0953,-101.78 L 51.0432,-101.769 L 50.9898,-101.763 L 50.9352,-101.761 L 1.59801,-101.761 L 1.54332,-101.758
 L 1.48987,-101.752 L 1.43779,-101.741 L 1.38727,-101.727 L 1.33849,-101.708 L 1.29163,-101.686 L 1.24683,-101.661
 L 1.2043,-101.632 L 1.16417,-101.6 L 1.12665,-101.566 L 1.09189,-101.528 L 1.06006,-101.488 L 1.03133,-101.445
 L 1.00586,-101.401 L 0.983856,-101.354 L 0.965469,-101.305 L 0.950867,-101.254 L 0.940216,-101.202 L 0.933716,-101.149
 L 0.931519,-101.094 L 0.931519,-27.4224 L 0.933716,-27.3677 L 0.940216,-27.3143 L 0.950867,-27.2622 L 0.965469,-27.2116
 L 0.983856,-27.1628 L 1.00586,-27.1159 L 1.03133,-27.0711 L 1.06006,-27.0285 L 1.09189,-26.9884 L 1.12665,-26.9508
 L 1.16417,-26.916 L 1.2043,-26.8841 L 1.24683,-26.8554 L 1.29163,-26.8299 L 1.33849,-26.8079 L 1.38727,-26.7894
 L 1.43779,-26.7748 L 1.48987,-26.7642 L 1.54332,-26.7576 L 1.59801,-26.7554 L 74.9368,-26.7554 L 74.9632,-26.7549
 L 74.9896,-26.7534 L 75.0157,-26.7508 L 75.0417,-26.7471 L 75.0674,-26.7425 L 75.0929,-26.7369 L 75.1181,-26.7303
 L 75.143,-26.7228 L 75.1676,-26.7142 L 75.1918,-26.7048 L 75.2157,-26.6943 L 75.2391,-26.683 L 75.262,-26.6707
 L 75.2845,-26.6576 L 75.3065,-26.6435 L 75.328,-26.6286 L 75.3489,-26.6128 L 75.3692,-26.5961 L 75.389,-26.5786
 L 75.4081,-26.5602 L 89.4707,-7.28699 L 89.4907,-7.271 L 89.5112,-7.25499 L 89.532,-7.23999 L 89.5533,-7.22499
 L 89.575,-7.211 L 89.5971,-7.198 L 89.6195,-7.185 L 89.6423,-7.174 L 89.6655,-7.16199 L 89.6889,-7.15199
 L 89.7127,-7.142 L 89.7368,-7.133 L 89.7611,-7.125 L 89.7857,-7.11699 L 89.8105,-7.11099 L 89.8356,-7.10399
 L 89.8609,-7.099 L 89.8863,-7.09499 L 89.912,-7.09099 L 89.9378,-7.088 L 138.996,0.204987 L 139.015,0.207993
 L 139.034,0.21199 L 139.053,0.214996 L 139.129,0.230988 L 139.147,0.235992 L 139.166,0.23999 L 139.204,0.25
 L 139.222,0.25499 L 139.241,0.259995 L 139.259,0.265991 L 139.278,0.270996 L 139.296,0.276993 L 139.315,0.28299
 L 139.333,0.287994 L 139.351,0.294998 L 139.37,0.300995 L 159.036,11.621 L 159.116,11.673 L 159.199,11.717
 L 159.284,11.754 L 159.37,11.784 L 159.458,11.807 L 159.547,11.823 L 159.637,11.832 L 159.726,11.834
 z
" stroke="black" fill="lightgray" stroke-width="0.5"/>
</svg>
